# xmcd
# Copyright (C) 1995-1998 Ti Kan
#
# Track frame offsets:
#       150
#       28410
#       53578
#       77395
#       101231
#       123918
#       145105
#       175862
#       201182
#       230532
#       253046
#       269942
#
# Disc length: 3979 seconds
#
# Revision: 0
# Processed by: cddbd v1.5.2PL0 Copyright (c) Steve Scherf et al.
# Submitted via: CD-Import v1.0
#
DISCID=ab0f890c
DTITLE=Hammerblag - Hammerblag Planet
DYEAR=1900
DGENRE=
TTITLE0=Hammerblag Rock
TTITLE1=Es Füürigs Tänzli Mit Zigünermusig
TTITLE2=Die Schlange Nach Der Häutung
TTITLE3=Osomapara
TTITLE4=Reggae Polka
TTITLE5=Romana Was'ich'mg
TTITLE6=Klagelied Uufwärts
TTITLE7=Printemps - Dans La Fontaine Rouge
TTITLE8=Kobold - Blues
TTITLE9=Afghani Punk
TTITLE10=Dodo
TTITLE11=Amarcord Tango
EXTD=
EXTT0=
EXTT1=
EXTT2=
EXTT3=
EXTT4=
EXTT5=
EXTT6=
EXTT7=
EXTT8=
EXTT9=
EXTT10=
EXTT11=
PLAYORDER=
